<svg width="722" height="458" viewBox="0 0 722 458" fill="none" xmlns="http://www.w3.org/2000/svg">
<g clip-path="url(#clip0_5_37)">
<g filter="url(#filter0_d_5_37)">
<path d="M697 0H25C11.1929 0 0 11.1929 0 25V433C0 446.807 11.1929 458 25 458H697C710.807 458 722 446.807 722 433V25C722 11.1929 710.807 0 697 0Z" fill="url(#paint0_linear_5_37)"/>
</g>
<path d="M222.968 362.16V344.64H226.904V362.16H222.968ZM226.424 355.104V351.84H233.192V355.104H226.424ZM226.424 347.904V344.64H233.48V347.904H226.424ZM236.398 362.16V344.64H240.238V362.16H236.398ZM239.758 362.16V358.896H247.414V362.16H239.758ZM239.758 354.888V351.624H246.862V354.888H239.758ZM239.758 347.904V344.64H247.246V347.904H239.758ZM250.648 362.16V344.496H254.584V362.16H250.648ZM261.28 362.16L256.144 354.624H260.464L265.84 362.16H261.28ZM253.528 356.544V353.448H257.848C258.424 353.448 258.92 353.336 259.336 353.112C259.768 352.872 260.096 352.544 260.32 352.128C260.56 351.696 260.68 351.2 260.68 350.64C260.68 350.08 260.56 349.592 260.32 349.176C260.096 348.744 259.768 348.416 259.336 348.192C258.92 347.952 258.424 347.832 257.848 347.832H253.528V344.496H257.536C258.992 344.496 260.256 344.72 261.328 345.168C262.4 345.6 263.224 346.248 263.8 347.112C264.376 347.976 264.664 349.064 264.664 350.376V350.76C264.664 352.056 264.368 353.136 263.776 354C263.2 354.848 262.376 355.488 261.304 355.92C260.248 356.336 258.992 356.544 257.536 356.544H253.528ZM268.179 362.16V344.64H274.635L281.235 358.968H282.051L281.571 359.4V344.64H285.267V362.16H278.763L272.163 347.832H271.347L271.827 347.4V362.16H268.179ZM287.546 362.16L293.33 344.64H299.69L305.69 362.16H301.61L296.762 347.352L298.01 347.856H294.914L296.21 347.352L291.482 362.16H287.546ZM291.938 357.816L293.138 354.552H300.002L301.226 357.816H291.938ZM307.976 362.16V344.64H314.432L321.032 358.968H321.848L321.368 359.4V344.64H325.064V362.16H318.56L311.96 347.832H311.144L311.624 347.4V362.16H307.976ZM332.455 362.256V358.584H335.719C336.535 358.584 337.271 358.464 337.927 358.224C338.583 357.968 339.143 357.616 339.607 357.168C340.071 356.704 340.423 356.152 340.663 355.512C340.903 354.856 341.023 354.136 341.023 353.352C341.023 352.536 340.903 351.808 340.663 351.168C340.423 350.528 340.071 349.984 339.607 349.536C339.143 349.088 338.583 348.752 337.927 348.528C337.271 348.288 336.535 348.168 335.719 348.168H332.455V344.496H335.503C337.087 344.496 338.471 344.728 339.655 345.192C340.839 345.656 341.831 346.288 342.631 347.088C343.431 347.888 344.023 348.808 344.407 349.848C344.807 350.872 345.007 351.952 345.007 353.088V353.616C345.007 354.672 344.807 355.72 344.407 356.76C344.023 357.784 343.431 358.712 342.631 359.544C341.831 360.36 340.839 361.016 339.655 361.512C338.471 362.008 337.087 362.256 335.503 362.256H332.455ZM328.999 362.256V344.496H332.935V362.256H328.999ZM356.149 362.616C354.565 362.616 353.181 362.344 351.997 361.8C350.829 361.24 349.861 360.512 349.093 359.616C348.325 358.704 347.749 357.72 347.365 356.664C346.997 355.608 346.813 354.592 346.813 353.616V353.088C346.813 352 347.005 350.928 347.389 349.872C347.789 348.8 348.381 347.832 349.165 346.968C349.949 346.104 350.925 345.416 352.093 344.904C353.261 344.376 354.613 344.112 356.149 344.112C357.685 344.112 359.037 344.376 360.205 344.904C361.373 345.416 362.349 346.104 363.133 346.968C363.917 347.832 364.509 348.8 364.909 349.872C365.309 350.928 365.509 352 365.509 353.088V353.616C365.509 354.592 365.317 355.608 364.933 356.664C364.549 357.72 363.973 358.704 363.205 359.616C362.437 360.512 361.461 361.24 360.277 361.8C359.109 362.344 357.733 362.616 356.149 362.616ZM356.149 358.944C356.981 358.944 357.725 358.8 358.381 358.512C359.053 358.224 359.621 357.824 360.085 357.312C360.565 356.8 360.925 356.208 361.165 355.536C361.405 354.864 361.525 354.144 361.525 353.376C361.525 352.56 361.397 351.816 361.141 351.144C360.901 350.456 360.541 349.864 360.061 349.368C359.597 348.856 359.037 348.464 358.381 348.192C357.725 347.92 356.981 347.784 356.149 347.784C355.317 347.784 354.573 347.92 353.917 348.192C353.261 348.464 352.693 348.856 352.213 349.368C351.749 349.864 351.397 350.456 351.157 351.144C350.917 351.816 350.797 352.56 350.797 353.376C350.797 354.144 350.917 354.864 351.157 355.536C351.397 356.208 351.749 356.8 352.213 357.312C352.693 357.824 353.261 358.224 353.917 358.512C354.573 358.8 355.317 358.944 356.149 358.944ZM373.531 362.16V344.64H377.467V362.16H373.531ZM376.987 362.16V358.704H384.331V362.16H376.987ZM393.648 362.616C392 362.616 390.6 362.312 389.448 361.704C388.312 361.08 387.448 360.2 386.856 359.064C386.264 357.928 385.968 356.584 385.968 355.032V344.64H389.904V355.176C389.904 355.944 390.048 356.616 390.336 357.192C390.64 357.752 391.064 358.184 391.608 358.488C392.168 358.792 392.848 358.944 393.648 358.944C394.464 358.944 395.144 358.792 395.688 358.488C396.248 358.184 396.672 357.752 396.96 357.192C397.248 356.632 397.392 355.96 397.392 355.176V344.64H401.328V355.032C401.328 356.584 401.032 357.928 400.44 359.064C399.848 360.2 398.984 361.08 397.848 361.704C396.712 362.312 395.312 362.616 393.648 362.616ZM412.977 362.616C411.393 362.616 410.033 362.344 408.897 361.8C407.761 361.24 406.833 360.512 406.113 359.616C405.393 358.704 404.857 357.728 404.505 356.688C404.169 355.632 404.001 354.608 404.001 353.616V353.088C404.001 352 404.177 350.928 404.529 349.872C404.881 348.8 405.417 347.832 406.137 346.968C406.873 346.104 407.793 345.416 408.897 344.904C410.017 344.376 411.337 344.112 412.857 344.112C414.441 344.112 415.841 344.408 417.057 345C418.273 345.592 419.241 346.416 419.961 347.472C420.697 348.512 421.129 349.736 421.257 351.144H417.297C417.185 350.44 416.929 349.84 416.529 349.344C416.129 348.848 415.609 348.464 414.969 348.192C414.345 347.92 413.641 347.784 412.857 347.784C412.073 347.784 411.377 347.92 410.769 348.192C410.161 348.464 409.649 348.848 409.233 349.344C408.833 349.84 408.521 350.432 408.297 351.12C408.089 351.792 407.985 352.544 407.985 353.376C407.985 354.192 408.089 354.944 408.297 355.632C408.521 356.304 408.841 356.896 409.257 357.408C409.689 357.904 410.217 358.288 410.841 358.56C411.465 358.816 412.177 358.944 412.977 358.944C414.193 358.944 415.217 358.648 416.049 358.056C416.897 357.464 417.409 356.648 417.585 355.608H421.521C421.377 356.888 420.945 358.064 420.225 359.136C419.521 360.192 418.553 361.04 417.321 361.68C416.105 362.304 414.657 362.616 412.977 362.616ZM422.289 362.16L428.073 344.64H434.433L440.433 362.16H436.353L431.505 347.352L432.753 347.856H429.657L430.953 347.352L426.225 362.16H422.289ZM426.681 357.816L427.881 354.552H434.745L435.969 357.816H426.681ZM448.72 362.616C447.136 362.616 445.8 362.368 444.712 361.872C443.624 361.36 442.8 360.672 442.24 359.808C441.68 358.928 441.4 357.92 441.4 356.784H445.216C445.216 357.232 445.336 357.648 445.576 358.032C445.832 358.416 446.216 358.728 446.728 358.968C447.24 359.192 447.904 359.304 448.72 359.304C449.456 359.304 450.072 359.208 450.568 359.016C451.064 358.824 451.44 358.56 451.696 358.224C451.952 357.872 452.08 357.472 452.08 357.024C452.08 356.464 451.84 356.024 451.36 355.704C450.88 355.368 450.104 355.152 449.032 355.056L447.712 354.936C445.968 354.792 444.576 354.248 443.536 353.304C442.496 352.36 441.976 351.112 441.976 349.56C441.976 348.44 442.24 347.472 442.768 346.656C443.312 345.84 444.064 345.216 445.024 344.784C445.984 344.336 447.12 344.112 448.432 344.112C449.808 344.112 450.984 344.352 451.96 344.832C452.952 345.296 453.712 345.96 454.24 346.824C454.768 347.672 455.032 348.672 455.032 349.824H451.192C451.192 349.392 451.088 349 450.88 348.648C450.672 348.28 450.36 347.984 449.944 347.76C449.544 347.536 449.04 347.424 448.432 347.424C447.856 347.424 447.368 347.52 446.968 347.712C446.584 347.904 446.296 348.168 446.104 348.504C445.912 348.824 445.816 349.176 445.816 349.56C445.816 350.056 445.992 350.488 446.344 350.856C446.696 351.224 447.272 351.44 448.072 351.504L449.416 351.624C450.696 351.736 451.824 352.016 452.8 352.464C453.776 352.896 454.536 353.496 455.08 354.264C455.64 355.016 455.92 355.936 455.92 357.024C455.92 358.144 455.624 359.128 455.032 359.976C454.456 360.808 453.632 361.456 452.56 361.92C451.488 362.384 450.208 362.616 448.72 362.616ZM471.711 362.616C470.127 362.616 468.767 362.344 467.631 361.8C466.495 361.24 465.567 360.512 464.847 359.616C464.127 358.704 463.591 357.728 463.239 356.688C462.903 355.632 462.735 354.608 462.735 353.616V353.088C462.735 352 462.911 350.928 463.263 349.872C463.615 348.8 464.151 347.832 464.871 346.968C465.607 346.104 466.527 345.416 467.631 344.904C468.751 344.376 470.071 344.112 471.591 344.112C473.175 344.112 474.575 344.408 475.791 345C477.007 345.592 477.975 346.416 478.695 347.472C479.431 348.512 479.863 349.736 479.991 351.144H476.031C475.919 350.44 475.663 349.84 475.263 349.344C474.863 348.848 474.343 348.464 473.703 348.192C473.079 347.92 472.375 347.784 471.591 347.784C470.807 347.784 470.111 347.92 469.503 348.192C468.895 348.464 468.383 348.848 467.967 349.344C467.567 349.84 467.255 350.432 467.031 351.12C466.823 351.792 466.719 352.544 466.719 353.376C466.719 354.192 466.823 354.944 467.031 355.632C467.255 356.304 467.575 356.896 467.991 357.408C468.423 357.904 468.951 358.288 469.575 358.56C470.199 358.816 470.911 358.944 471.711 358.944C472.927 358.944 473.951 358.648 474.783 358.056C475.631 357.464 476.143 356.648 476.319 355.608H480.255C480.111 356.888 479.679 358.064 478.959 359.136C478.255 360.192 477.287 361.04 476.055 361.68C474.839 362.304 473.391 362.616 471.711 362.616ZM491.362 362.256V358.584H494.626C495.442 358.584 496.178 358.464 496.834 358.224C497.49 357.968 498.05 357.616 498.514 357.168C498.978 356.704 499.33 356.152 499.57 355.512C499.81 354.856 499.93 354.136 499.93 353.352C499.93 352.536 499.81 351.808 499.57 351.168C499.33 350.528 498.978 349.984 498.514 349.536C498.05 349.088 497.49 348.752 496.834 348.528C496.178 348.288 495.442 348.168 494.626 348.168H491.362V344.496H494.41C495.994 344.496 497.378 344.728 498.562 345.192C499.746 345.656 500.738 346.288 501.538 347.088C502.338 347.888 502.93 348.808 503.314 349.848C503.714 350.872 503.914 351.952 503.914 353.088V353.616C503.914 354.672 503.714 355.72 503.314 356.76C502.93 357.784 502.338 358.712 501.538 359.544C500.738 360.36 499.746 361.016 498.562 361.512C497.378 362.008 495.994 362.256 494.41 362.256H491.362ZM487.906 362.256V344.496H491.842V362.256H487.906ZM515.056 362.616C513.472 362.616 512.088 362.344 510.904 361.8C509.736 361.24 508.768 360.512 508 359.616C507.232 358.704 506.656 357.72 506.271 356.664C505.904 355.608 505.72 354.592 505.72 353.616V353.088C505.72 352 505.912 350.928 506.296 349.872C506.696 348.8 507.288 347.832 508.072 346.968C508.856 346.104 509.832 345.416 511 344.904C512.168 344.376 513.52 344.112 515.056 344.112C516.592 344.112 517.944 344.376 519.112 344.904C520.28 345.416 521.256 346.104 522.04 346.968C522.824 347.832 523.416 348.8 523.816 349.872C524.216 350.928 524.416 352 524.416 353.088V353.616C524.416 354.592 524.224 355.608 523.84 356.664C523.456 357.72 522.88 358.704 522.112 359.616C521.344 360.512 520.368 361.24 519.184 361.8C518.016 362.344 516.64 362.616 515.056 362.616ZM515.056 358.944C515.888 358.944 516.632 358.8 517.288 358.512C517.96 358.224 518.528 357.824 518.992 357.312C519.472 356.8 519.832 356.208 520.072 355.536C520.312 354.864 520.432 354.144 520.432 353.376C520.432 352.56 520.304 351.816 520.048 351.144C519.808 350.456 519.448 349.864 518.968 349.368C518.504 348.856 517.944 348.464 517.288 348.192C516.632 347.92 515.888 347.784 515.056 347.784C514.224 347.784 513.48 347.92 512.824 348.192C512.168 348.464 511.6 348.856 511.12 349.368C510.656 349.864 510.304 350.456 510.064 351.144C509.824 351.816 509.704 352.56 509.704 353.376C509.704 354.144 509.824 354.864 510.064 355.536C510.304 356.208 510.656 356.8 511.12 357.312C511.6 357.824 512.168 358.224 512.824 358.512C513.48 358.8 514.224 358.944 515.056 358.944ZM533.377 362.616C531.793 362.616 530.457 362.368 529.369 361.872C528.281 361.36 527.457 360.672 526.896 359.808C526.337 358.928 526.057 357.92 526.057 356.784H529.873C529.873 357.232 529.993 357.648 530.233 358.032C530.489 358.416 530.873 358.728 531.385 358.968C531.897 359.192 532.561 359.304 533.377 359.304C534.113 359.304 534.729 359.208 535.225 359.016C535.721 358.824 536.097 358.56 536.353 358.224C536.609 357.872 536.737 357.472 536.737 357.024C536.737 356.464 536.497 356.024 536.017 355.704C535.537 355.368 534.761 355.152 533.689 355.056L532.368 354.936C530.625 354.792 529.233 354.248 528.193 353.304C527.153 352.36 526.633 351.112 526.633 349.56C526.633 348.44 526.897 347.472 527.425 346.656C527.969 345.84 528.721 345.216 529.681 344.784C530.641 344.336 531.777 344.112 533.089 344.112C534.465 344.112 535.641 344.352 536.617 344.832C537.609 345.296 538.369 345.96 538.897 346.824C539.425 347.672 539.689 348.672 539.689 349.824H535.849C535.849 349.392 535.745 349 535.537 348.648C535.329 348.28 535.017 347.984 534.601 347.76C534.201 347.536 533.697 347.424 533.089 347.424C532.513 347.424 532.025 347.52 531.625 347.712C531.241 347.904 530.953 348.168 530.761 348.504C530.569 348.824 530.473 349.176 530.473 349.56C530.473 350.056 530.649 350.488 531.001 350.856C531.353 351.224 531.929 351.44 532.729 351.504L534.073 351.624C535.353 351.736 536.481 352.016 537.457 352.464C538.433 352.896 539.193 353.496 539.737 354.264C540.297 355.016 540.577 355.936 540.577 357.024C540.577 358.144 540.281 359.128 539.689 359.976C539.113 360.808 538.289 361.456 537.217 361.92C536.145 362.384 534.865 362.616 533.377 362.616ZM554.423 362.616C552.839 362.616 551.503 362.368 550.415 361.872C549.327 361.36 548.503 360.672 547.943 359.808C547.383 358.928 547.103 357.92 547.103 356.784H550.919C550.919 357.232 551.039 357.648 551.279 358.032C551.535 358.416 551.919 358.728 552.431 358.968C552.943 359.192 553.607 359.304 554.423 359.304C555.159 359.304 555.775 359.208 556.271 359.016C556.767 358.824 557.143 358.56 557.399 358.224C557.655 357.872 557.783 357.472 557.783 357.024C557.783 356.464 557.543 356.024 557.063 355.704C556.583 355.368 555.807 355.152 554.735 355.056L553.415 354.936C551.671 354.792 550.279 354.248 549.239 353.304C548.199 352.36 547.679 351.112 547.679 349.56C547.679 348.44 547.943 347.472 548.471 346.656C549.015 345.84 549.767 345.216 550.727 344.784C551.687 344.336 552.823 344.112 554.135 344.112C555.511 344.112 556.687 344.352 557.663 344.832C558.655 345.296 559.415 345.96 559.943 346.824C560.471 347.672 560.735 348.672 560.735 349.824H556.895C556.895 349.392 556.791 349 556.583 348.648C556.375 348.28 556.063 347.984 555.647 347.76C555.247 347.536 554.743 347.424 554.135 347.424C553.559 347.424 553.071 347.52 552.671 347.712C552.287 347.904 551.999 348.168 551.807 348.504C551.615 348.824 551.519 349.176 551.519 349.56C551.519 350.056 551.695 350.488 552.047 350.856C552.399 351.224 552.975 351.44 553.775 351.504L555.119 351.624C556.399 351.736 557.527 352.016 558.503 352.464C559.479 352.896 560.239 353.496 560.783 354.264C561.343 355.016 561.623 355.936 561.623 357.024C561.623 358.144 561.327 359.128 560.735 359.976C560.159 360.808 559.335 361.456 558.263 361.92C557.191 362.384 555.911 362.616 554.423 362.616ZM562.585 362.16L568.369 344.64H574.729L580.729 362.16H576.649L571.801 347.352L573.049 347.856H569.953L571.249 347.352L566.521 362.16H562.585ZM566.977 357.816L568.177 354.552H575.041L576.265 357.816H566.977ZM583.015 362.16V344.64H589.471L596.071 358.968H596.887L596.407 359.4V344.64H600.103V362.16H593.599L586.999 347.832H586.183L586.663 347.4V362.16H583.015ZM607.518 362.16V347.592H611.454V362.16H607.518ZM602.598 348.072V344.64H616.398V348.072H602.598ZM626.782 362.616C625.198 362.616 623.814 362.344 622.63 361.8C621.462 361.24 620.494 360.512 619.726 359.616C618.958 358.704 618.382 357.72 617.998 356.664C617.63 355.608 617.446 354.592 617.446 353.616V353.088C617.446 352 617.638 350.928 618.022 349.872C618.422 348.8 619.014 347.832 619.798 346.968C620.582 346.104 621.558 345.416 622.726 344.904C623.894 344.376 625.246 344.112 626.782 344.112C628.318 344.112 629.67 344.376 630.838 344.904C632.006 345.416 632.982 346.104 633.766 346.968C634.55 347.832 635.142 348.8 635.542 349.872C635.942 350.928 636.142 352 636.142 353.088V353.616C636.142 354.592 635.95 355.608 635.566 356.664C635.182 357.72 634.606 358.704 633.838 359.616C633.07 360.512 632.094 361.24 630.91 361.8C629.742 362.344 628.366 362.616 626.782 362.616ZM626.782 358.944C627.614 358.944 628.358 358.8 629.014 358.512C629.686 358.224 630.254 357.824 630.718 357.312C631.198 356.8 631.558 356.208 631.798 355.536C632.038 354.864 632.158 354.144 632.158 353.376C632.158 352.56 632.03 351.816 631.774 351.144C631.534 350.456 631.174 349.864 630.694 349.368C630.23 348.856 629.67 348.464 629.014 348.192C628.358 347.92 627.614 347.784 626.782 347.784C625.95 347.784 625.206 347.92 624.55 348.192C623.894 348.464 623.326 348.856 622.846 349.368C622.382 349.864 622.03 350.456 621.79 351.144C621.55 351.816 621.43 352.56 621.43 353.376C621.43 354.144 621.55 354.864 621.79 355.536C622.03 356.208 622.382 356.8 622.846 357.312C623.326 357.824 623.894 358.224 624.55 358.512C625.206 358.8 625.95 358.944 626.782 358.944ZM645.103 362.616C643.519 362.616 642.183 362.368 641.095 361.872C640.007 361.36 639.183 360.672 638.623 359.808C638.063 358.928 637.783 357.92 637.783 356.784H641.599C641.599 357.232 641.719 357.648 641.959 358.032C642.215 358.416 642.599 358.728 643.111 358.968C643.623 359.192 644.287 359.304 645.103 359.304C645.839 359.304 646.455 359.208 646.951 359.016C647.447 358.824 647.823 358.56 648.079 358.224C648.335 357.872 648.463 357.472 648.463 357.024C648.463 356.464 648.223 356.024 647.743 355.704C647.263 355.368 646.487 355.152 645.415 355.056L644.095 354.936C642.351 354.792 640.959 354.248 639.919 353.304C638.879 352.36 638.359 351.112 638.359 349.56C638.359 348.44 638.623 347.472 639.151 346.656C639.695 345.84 640.447 345.216 641.407 344.784C642.367 344.336 643.503 344.112 644.815 344.112C646.191 344.112 647.367 344.352 648.343 344.832C649.335 345.296 650.095 345.96 650.623 346.824C651.151 347.672 651.415 348.672 651.415 349.824H647.575C647.575 349.392 647.471 349 647.263 348.648C647.055 348.28 646.743 347.984 646.327 347.76C645.927 347.536 645.423 347.424 644.815 347.424C644.239 347.424 643.751 347.52 643.351 347.712C642.967 347.904 642.679 348.168 642.487 348.504C642.295 348.824 642.199 349.176 642.199 349.56C642.199 350.056 642.375 350.488 642.727 350.856C643.079 351.224 643.655 351.44 644.455 351.504L645.799 351.624C647.079 351.736 648.207 352.016 649.183 352.464C650.159 352.896 650.919 353.496 651.463 354.264C652.023 355.016 652.303 355.936 652.303 357.024C652.303 358.144 652.007 359.128 651.415 359.976C650.839 360.808 650.015 361.456 648.943 361.92C647.871 362.384 646.591 362.616 645.103 362.616Z" fill="#FEFBFF"/>
<path fill-rule="evenodd" clip-rule="evenodd" d="M94.6654 319.851C94.6654 319.851 94.6657 319.826 94.6766 319.771C94.6871 319.717 94.7054 319.646 94.7347 319.559C94.7935 319.385 94.8901 319.165 95.0334 318.917C95.32 318.421 95.7759 317.841 96.4342 317.301C97.733 316.235 99.8636 315.292 103.14 315.533C116.1 316.484 123.415 325.41 123.415 332.161V372.168C123.415 372.805 123.268 373.099 123.132 373.241C123.004 373.375 122.718 373.546 122.028 373.546H114.306C113.616 373.546 113.33 373.375 113.202 373.241C113.066 373.1 112.919 372.805 112.919 372.168V335.238C112.919 332.828 111.735 330.421 109.988 328.634C108.238 326.842 105.817 325.566 103.213 325.566H94.6654V319.851ZM103.213 327.566H94.6654V372.168C94.6654 373.162 94.4817 374.108 93.7928 374.763C93.1156 375.407 92.1813 375.546 91.2784 375.546H83.4154C82.6084 375.546 81.7233 375.389 81.0382 374.792C80.3257 374.171 80.0284 373.251 80.0284 372.168V334.819C80.0284 332.956 81.0921 330.668 82.6635 328.878C84.2482 327.074 86.5354 325.566 89.1714 325.566H92.6654V319.851C92.6654 319.284 92.9171 318.582 93.3016 317.917C93.7056 317.217 94.317 316.45 95.1659 315.754C96.8815 314.347 99.525 313.262 103.287 313.538C117.005 314.545 125.415 324.098 125.415 332.161V372.168C125.415 373.069 125.212 373.963 124.575 374.626C123.931 375.297 123.024 375.546 122.028 375.546H114.306C113.311 375.546 112.403 375.297 111.759 374.626C111.123 373.963 110.919 373.069 110.919 372.168V335.238C110.919 333.463 110.026 331.534 108.558 330.031C107.093 328.532 105.161 327.566 103.213 327.566ZM89.1714 327.566H92.6654V372.168C92.6654 372.991 92.498 373.235 92.4146 373.314C92.3196 373.404 92.0604 373.546 91.2784 373.546H83.4154C82.8182 373.546 82.5098 373.422 82.3524 373.285C82.2226 373.171 82.0284 372.902 82.0284 372.168V334.819C82.0284 333.604 82.7896 331.766 84.1664 330.198C85.5299 328.645 87.3142 327.566 89.1714 327.566ZM164.111 381.128C164.111 381.13 164.11 381.156 164.1 381.209C164.089 381.262 164.071 381.333 164.042 381.42C163.983 381.595 163.886 381.814 163.743 382.063C163.457 382.559 163.001 383.139 162.342 383.679C161.043 384.744 158.913 385.687 155.636 385.447C142.676 384.495 135.361 375.569 135.361 368.819V328.812C135.361 328.175 135.508 327.88 135.644 327.739C135.772 327.605 136.058 327.434 136.748 327.434H144.471C145.16 327.434 145.446 327.605 145.575 327.739C145.71 327.88 145.858 328.175 145.858 328.812V365.741C145.858 368.151 147.042 370.559 148.788 372.346C150.539 374.137 152.96 375.414 155.563 375.414H164.111V381.128ZM155.563 373.414H164.111V328.812C164.111 327.817 164.295 326.872 164.984 326.216C165.661 325.572 166.595 325.434 167.498 325.434H175.361C176.168 325.434 177.053 325.59 177.738 326.187C178.451 326.808 178.748 327.728 178.748 328.812V366.161C178.748 368.023 177.684 370.312 176.113 372.101C174.528 373.906 172.241 375.414 169.605 375.414H166.111V381.128C166.111 381.695 165.859 382.397 165.475 383.063C165.071 383.762 164.459 384.529 163.611 385.225C161.895 386.632 159.252 387.718 155.49 387.441C141.772 386.434 133.361 376.882 133.361 368.819V328.812C133.361 327.91 133.565 327.016 134.201 326.353C134.845 325.683 135.753 325.434 136.748 325.434H144.471C145.466 325.434 146.373 325.683 147.017 326.353C147.654 327.016 147.858 327.91 147.858 328.812V365.741C147.858 367.516 148.75 369.445 150.219 370.948C151.683 372.447 153.615 373.414 155.563 373.414ZM169.605 373.414H166.111V328.812C166.111 327.988 166.279 327.745 166.362 327.666C166.457 327.575 166.716 327.434 167.498 327.434H175.361C175.958 327.434 176.267 327.558 176.424 327.695C176.554 327.808 176.748 328.077 176.748 328.812V366.161C176.748 367.376 175.987 369.214 174.61 370.782C173.247 372.334 171.462 373.414 169.605 373.414Z" fill="#FEFBFF"/>
<path d="M581.889 132.248C607.156 132.248 627.639 111.764 627.639 86.4971C627.639 61.2298 607.156 40.7466 581.889 40.7466C556.622 40.7466 536.138 61.2298 536.138 86.4971C536.138 111.764 556.622 132.248 581.889 132.248Z" fill="#E71924"/>
<path d="M637.647 132.248C662.914 132.248 683.398 111.764 683.398 86.4971C683.398 61.2298 662.914 40.7466 637.647 40.7466C612.38 40.7466 591.896 61.2298 591.896 86.4971C591.896 111.764 612.38 132.248 637.647 132.248Z" fill="#F99F19"/>
<path fill-rule="evenodd" clip-rule="evenodd" d="M609.768 122.595C620.636 114.23 627.64 101.092 627.64 86.3172C627.64 71.5427 620.636 58.404 609.768 50.0396C598.9 58.404 591.897 71.5427 591.897 86.3172C591.897 101.092 598.9 114.23 609.768 122.595Z" fill="#F26520"/>
<path d="M172.279 156.195H86.4971C83.1413 156.195 80.4209 158.915 80.4209 162.271V219.459C80.4209 222.815 83.1413 225.536 86.4971 225.536H172.279C175.635 225.536 178.356 222.815 178.356 219.459V162.271C178.356 158.915 175.635 156.195 172.279 156.195Z" fill="url(#paint1_linear_5_37)" stroke="#211F21" stroke-width="2.14455"/>
<path d="M80.7783 178.713H110.087" stroke="#211F21" stroke-width="2" stroke-linecap="round"/>
<path d="M80.7783 200.873H109.445" stroke="#211F21" stroke-width="2" stroke-linecap="round"/>
<path d="M149.404 200.873H177.998" stroke="#211F21" stroke-width="2" stroke-linecap="round"/>
<path d="M148.975 179.428H177.998" stroke="#211F21" stroke-width="2" stroke-linecap="round"/>
<path d="M129.388 168.706C130.572 168.706 131.533 167.745 131.533 166.561C131.533 165.377 130.572 164.416 129.388 164.416C128.204 164.416 127.243 165.377 127.243 166.561C127.243 167.745 128.204 168.706 129.388 168.706Z" fill="#211F21"/>
<path d="M231.053 205.824C236.325 192.59 236.926 185.119 231.053 171.645C230.43 170.215 231.053 169.024 231.768 168.786C232.483 168.547 233.589 168.786 234.27 170.215C241.188 184.73 240.767 192.87 234.627 207.387C233.912 208.817 232.575 208.998 231.768 208.46C230.824 207.831 230.608 206.941 231.053 205.824Z" fill="#FEFBFF"/>
<path d="M223.547 172.717C222.832 173.075 222.375 174.43 223.19 175.934C227.999 185.94 227.801 191.662 223.19 202.026C222.686 203.071 222.998 204.226 223.905 204.528C224.977 204.886 225.913 204.125 226.406 203.098C231.701 192.084 231.84 185.756 226.406 174.147C225.905 173.075 224.619 172.181 223.547 172.717Z" fill="#FEFBFF"/>
<path d="M216.399 177.364C215.326 177.721 215.136 178.908 215.684 180.223C218.53 187.063 218.979 190.898 215.684 197.737C215.041 198.929 214.83 200.193 216.041 200.596C217.252 201 218.126 200.363 218.543 199.524C222.766 191.149 221.82 186.454 218.543 178.079C218.263 177.364 217.471 177.006 216.399 177.364Z" fill="#FEFBFF"/>
<path d="M208.893 180.223C207.82 180.938 207.668 182.022 208.535 183.797C210.344 187.564 210.303 189.68 208.535 193.448C207.713 195.11 207.463 197.022 208.893 197.38C210.322 197.737 210.957 197.229 211.752 195.235C213.578 189.987 213.756 187.02 211.752 181.653C211.291 180.261 210.322 179.508 208.893 180.223Z" fill="#FEFBFF"/>
<path d="M145.115 170.849C142.372 161.508 137.251 156.91 129.03 156.91C119.023 156.91 116.194 164.53 110.087 178.355C113.998 187.507 114.039 192.437 110.087 200.873C116.494 219.254 121.24 224.915 129.388 224.821C140.111 224.821 143.163 215.733 149.046 200.873C145.952 192.497 145.622 187.875 148.5 179.5" stroke="#211F21" stroke-width="2" stroke-linecap="round"/>
</g>
<defs>
<filter id="filter0_d_5_37" x="-3" y="-3" width="734" height="470" filterUnits="userSpaceOnUse" color-interpolation-filters="sRGB">
<feFlood flood-opacity="0" result="BackgroundImageFix"/>
<feColorMatrix in="SourceAlpha" type="matrix" values="0 0 0 0 0 0 0 0 0 0 0 0 0 0 0 0 0 0 127 0" result="hardAlpha"/>
<feOffset dx="3" dy="3"/>
<feGaussianBlur stdDeviation="3"/>
<feComposite in2="hardAlpha" operator="out"/>
<feColorMatrix type="matrix" values="0 0 0 0 1 0 0 0 0 1 0 0 0 0 1 0 0 0 0.25 0"/>
<feBlend mode="normal" in2="BackgroundImageFix" result="effect1_dropShadow_5_37"/>
<feBlend mode="normal" in="SourceGraphic" in2="effect1_dropShadow_5_37" result="shape"/>
</filter>
<linearGradient id="paint0_linear_5_37" x1="610.09" y1="61.83" x2="354.096" y2="526.995" gradientUnits="userSpaceOnUse">
<stop stop-color="#A950C4"/>
<stop offset="1" stop-color="#82269E"/>
</linearGradient>
<linearGradient id="paint1_linear_5_37" x1="171" y1="165" x2="87" y2="221" gradientUnits="userSpaceOnUse">
<stop stop-color="#F4F4F4"/>
<stop offset="1" stop-color="#D6D6D6"/>
</linearGradient>
<clipPath id="clip0_5_37">
<rect width="722" height="458" fill="white"/>
</clipPath>
</defs>
</svg>
